<svg width="14" height="14" viewBox="0 0 14 14" fill="none" xmlns="http://www.w3.org/2000/svg">
<path d="M5.86069 1.23964C6.16003 0.318321 7.46346 0.318321 7.7628 1.23964L8.6499 3.96992C8.78377 4.38194 9.16773 4.66091 9.60096 4.66091H12.4717C13.4404 4.66091 13.8432 5.90051 13.0595 6.46992L10.737 8.15739C10.3865 8.41203 10.2398 8.86339 10.3737 9.27541L11.2608 12.0058C11.5602 12.9271 10.5057 13.6932 9.72197 13.1238L7.39954 11.4364C7.04905 11.1817 6.57444 11.1817 6.22395 11.4364L3.90152 13.1238C3.11781 13.6932 2.06332 12.9271 2.36266 12.0058L3.24978 9.27541C3.38365 8.86339 3.237 8.41203 2.88652 8.15739L0.563981 6.46991C-0.219719 5.90051 0.183062 4.66091 1.15178 4.66091H4.02253C4.45576 4.66091 4.83972 4.38194 4.97359 3.96992L5.86069 1.23964Z" fill="#FFA858"/>
</svg>
