<svg width="200" height="56" viewBox="0 0 200 56" fill="none" xmlns="http://www.w3.org/2000/svg">
<path d="M70.5 27.2188V28.499C70.5 30.5524 70.2217 32.3955 69.665 34.0283C69.1084 35.6611 68.3229 37.0527 67.3086 38.2031C66.2943 39.3411 65.082 40.2132 63.6719 40.8193C62.2741 41.4255 60.7217 41.7285 59.0146 41.7285C57.32 41.7285 55.7676 41.4255 54.3574 40.8193C52.9596 40.2132 51.7474 39.3411 50.7207 38.2031C49.694 37.0527 48.8962 35.6611 48.3271 34.0283C47.7705 32.3955 47.4922 30.5524 47.4922 28.499V27.2188C47.4922 25.153 47.7705 23.3099 48.3271 21.6895C48.8838 20.0566 49.6693 18.665 50.6836 17.5146C51.7103 16.3643 52.9225 15.486 54.3203 14.8799C55.7305 14.2738 57.2829 13.9707 58.9775 13.9707C60.6846 13.9707 62.237 14.2738 63.6348 14.8799C65.0449 15.486 66.2572 16.3643 67.2715 17.5146C68.2982 18.665 69.0898 20.0566 69.6465 21.6895C70.2155 23.3099 70.5 25.153 70.5 27.2188ZM64.8779 28.499V27.1816C64.8779 25.7467 64.748 24.485 64.4883 23.3965C64.2285 22.3079 63.8451 21.3926 63.3379 20.6504C62.8307 19.9082 62.2122 19.3516 61.4824 18.9805C60.7526 18.597 59.9176 18.4053 58.9775 18.4053C58.0374 18.4053 57.2025 18.597 56.4727 18.9805C55.7552 19.3516 55.1429 19.9082 54.6357 20.6504C54.141 21.3926 53.7637 22.3079 53.5039 23.3965C53.2441 24.485 53.1143 25.7467 53.1143 27.1816V28.499C53.1143 29.9215 53.2441 31.1833 53.5039 32.2842C53.7637 33.3727 54.1471 34.2943 54.6543 35.0488C55.1615 35.791 55.7799 36.3538 56.5098 36.7373C57.2396 37.1208 58.0745 37.3125 59.0146 37.3125C59.9548 37.3125 60.7897 37.1208 61.5195 36.7373C62.2493 36.3538 62.8617 35.791 63.3564 35.0488C63.8512 34.2943 64.2285 33.3727 64.4883 32.2842C64.748 31.1833 64.8779 29.9215 64.8779 28.499ZM79.5176 25.6602V41.3574H74.1738V21.2812H79.2021L79.5176 25.6602ZM85.5664 21.1514L85.4736 26.1055C85.2139 26.0684 84.8984 26.0374 84.5273 26.0127C84.1686 25.9756 83.8408 25.957 83.5439 25.957C82.7894 25.957 82.1338 26.056 81.5771 26.2539C81.0329 26.4395 80.5752 26.7178 80.2041 27.0889C79.8454 27.46 79.5732 27.9115 79.3877 28.4434C79.2145 28.9753 79.1156 29.5814 79.0908 30.2617L78.0146 29.9277C78.0146 28.6289 78.1445 27.4352 78.4043 26.3467C78.6641 25.2458 79.0413 24.2871 79.5361 23.4707C80.0433 22.6543 80.6618 22.0234 81.3916 21.5781C82.1214 21.1328 82.9564 20.9102 83.8965 20.9102C84.1934 20.9102 84.4964 20.9349 84.8057 20.9844C85.1149 21.0215 85.3685 21.0771 85.5664 21.1514ZM100.429 21.2812H105.271V40.6895C105.271 42.5202 104.863 44.0726 104.047 45.3467C103.243 46.6331 102.117 47.6042 100.67 48.2598C99.2227 48.9277 97.5404 49.2617 95.623 49.2617C94.7819 49.2617 93.8913 49.1504 92.9512 48.9277C92.0234 48.7051 91.1328 48.3587 90.2793 47.8887C89.4382 47.4186 88.7331 46.8249 88.1641 46.1074L90.5205 42.9531C91.139 43.6706 91.8564 44.2272 92.6729 44.623C93.4893 45.0312 94.3923 45.2354 95.3818 45.2354C96.3467 45.2354 97.1631 45.056 97.8311 44.6973C98.499 44.3509 99.0124 43.8376 99.3711 43.1572C99.7298 42.4893 99.9092 41.679 99.9092 40.7266V25.9199L100.429 21.2812ZM86.9209 31.5605V31.1709C86.9209 29.637 87.1064 28.2454 87.4775 26.9961C87.861 25.7344 88.3991 24.652 89.0918 23.749C89.7969 22.846 90.6504 22.1471 91.6523 21.6523C92.6543 21.1576 93.7861 20.9102 95.0479 20.9102C96.3838 20.9102 97.5033 21.1576 98.4062 21.6523C99.3092 22.1471 100.051 22.8522 100.633 23.7676C101.214 24.6706 101.666 25.7406 101.987 26.9775C102.321 28.2021 102.581 29.5443 102.767 31.0039V31.8574C102.581 33.2552 102.303 34.554 101.932 35.7539C101.561 36.9538 101.072 38.0052 100.466 38.9082C99.8597 39.7988 99.1051 40.4915 98.2021 40.9863C97.3115 41.4811 96.2477 41.7285 95.0107 41.7285C93.7738 41.7285 92.6543 41.4749 91.6523 40.9678C90.6628 40.4606 89.8154 39.7493 89.1104 38.834C88.4053 37.9186 87.861 36.8424 87.4775 35.6055C87.1064 34.3685 86.9209 33.0202 86.9209 31.5605ZM92.2646 31.1709V31.5605C92.2646 32.3893 92.3451 33.1624 92.5059 33.8799C92.6667 34.5973 92.9141 35.2344 93.248 35.791C93.5944 36.3353 94.0212 36.762 94.5283 37.0713C95.0479 37.3682 95.6602 37.5166 96.3652 37.5166C97.3424 37.5166 98.1403 37.3125 98.7588 36.9043C99.3773 36.4837 99.8411 35.9085 100.15 35.1787C100.46 34.4489 100.639 33.6077 100.688 32.6553V30.2246C100.664 29.4453 100.559 28.7464 100.373 28.1279C100.188 27.4971 99.9277 26.959 99.5938 26.5137C99.2598 26.0684 98.8268 25.722 98.2949 25.4746C97.763 25.2272 97.1322 25.1035 96.4023 25.1035C95.6973 25.1035 95.085 25.2643 94.5654 25.5859C94.0583 25.8952 93.6315 26.3219 93.2852 26.8662C92.9512 27.4105 92.6976 28.0537 92.5244 28.7959C92.3512 29.5257 92.2646 30.3174 92.2646 31.1709ZM120.264 36.8301V27.8867C120.264 27.2435 120.159 26.693 119.948 26.2354C119.738 25.7653 119.41 25.4004 118.965 25.1406C118.532 24.8809 117.969 24.751 117.276 24.751C116.683 24.751 116.169 24.8561 115.736 25.0664C115.303 25.2643 114.969 25.555 114.734 25.9385C114.499 26.3096 114.382 26.7487 114.382 27.2559H109.038C109.038 26.4023 109.236 25.5921 109.632 24.8252C110.028 24.0583 110.603 23.3841 111.357 22.8027C112.112 22.209 113.009 21.7451 114.048 21.4111C115.099 21.0771 116.274 20.9102 117.573 20.9102C119.132 20.9102 120.517 21.1699 121.729 21.6895C122.942 22.209 123.894 22.9883 124.587 24.0273C125.292 25.0664 125.645 26.3652 125.645 27.9238V36.5146C125.645 37.6156 125.713 38.5186 125.849 39.2236C125.985 39.9163 126.183 40.5225 126.442 41.042V41.3574H121.043C120.783 40.8132 120.585 40.1328 120.449 39.3164C120.326 38.4876 120.264 37.6589 120.264 36.8301ZM120.969 29.1299L121.006 32.1543H118.019C117.313 32.1543 116.701 32.2347 116.182 32.3955C115.662 32.5563 115.235 32.7852 114.901 33.082C114.567 33.3665 114.32 33.7005 114.159 34.084C114.011 34.4674 113.937 34.888 113.937 35.3457C113.937 35.8034 114.042 36.2178 114.252 36.5889C114.462 36.9476 114.765 37.2321 115.161 37.4424C115.557 37.6403 116.021 37.7393 116.553 37.7393C117.357 37.7393 118.056 37.5785 118.649 37.2568C119.243 36.9352 119.701 36.5394 120.022 36.0693C120.356 35.5993 120.53 35.154 120.542 34.7334L121.952 36.9971C121.754 37.5042 121.482 38.0299 121.136 38.5742C120.802 39.1185 120.375 39.6318 119.855 40.1143C119.336 40.5843 118.711 40.974 117.981 41.2832C117.252 41.5801 116.386 41.7285 115.384 41.7285C114.11 41.7285 112.953 41.4749 111.914 40.9678C110.887 40.4482 110.071 39.737 109.465 38.834C108.871 37.9186 108.574 36.8796 108.574 35.7168C108.574 34.6654 108.772 33.7314 109.168 32.915C109.564 32.0986 110.145 31.4121 110.912 30.8555C111.691 30.2865 112.662 29.8597 113.825 29.5752C114.988 29.2783 116.336 29.1299 117.87 29.1299H120.969ZM134.996 25.5674V41.3574H129.652V21.2812H134.662L134.996 25.5674ZM134.217 30.6143H132.77C132.77 29.1299 132.961 27.7939 133.345 26.6064C133.728 25.4066 134.266 24.3861 134.959 23.5449C135.652 22.6914 136.474 22.042 137.427 21.5967C138.392 21.139 139.468 20.9102 140.655 20.9102C141.595 20.9102 142.455 21.0462 143.234 21.3184C144.014 21.5905 144.682 22.0234 145.238 22.6172C145.807 23.2109 146.24 23.9964 146.537 24.9736C146.846 25.9508 147.001 27.1445 147.001 28.5547V41.3574H141.62V28.5361C141.62 27.6455 141.496 26.9528 141.249 26.458C141.002 25.9632 140.637 25.6169 140.154 25.4189C139.684 25.2087 139.103 25.1035 138.41 25.1035C137.693 25.1035 137.068 25.2458 136.536 25.5303C136.017 25.8148 135.584 26.2106 135.237 26.7178C134.903 27.2126 134.65 27.7939 134.477 28.4619C134.303 29.1299 134.217 29.8473 134.217 30.6143ZM156.705 21.2812V41.3574H151.343V21.2812H156.705ZM151.009 16.0488C151.009 15.2695 151.281 14.6263 151.825 14.1191C152.369 13.612 153.099 13.3584 154.015 13.3584C154.918 13.3584 155.641 13.612 156.186 14.1191C156.742 14.6263 157.021 15.2695 157.021 16.0488C157.021 16.8281 156.742 17.4714 156.186 17.9785C155.641 18.4857 154.918 18.7393 154.015 18.7393C153.099 18.7393 152.369 18.4857 151.825 17.9785C151.281 17.4714 151.009 16.8281 151.009 16.0488ZM169.415 37.5537C170.071 37.5537 170.652 37.43 171.159 37.1826C171.666 36.9229 172.062 36.5641 172.347 36.1064C172.644 35.6364 172.798 35.0859 172.811 34.4551H177.839C177.826 35.8652 177.449 37.1208 176.707 38.2217C175.965 39.3102 174.969 40.1699 173.72 40.8008C172.47 41.4193 171.073 41.7285 169.526 41.7285C167.968 41.7285 166.607 41.4688 165.444 40.9492C164.294 40.4297 163.335 39.7122 162.568 38.7969C161.801 37.8691 161.226 36.793 160.843 35.5684C160.459 34.3314 160.268 33.0078 160.268 31.5977V31.0596C160.268 29.637 160.459 28.3135 160.843 27.0889C161.226 25.8519 161.801 24.7757 162.568 23.8604C163.335 22.9326 164.294 22.209 165.444 21.6895C166.595 21.1699 167.943 20.9102 169.489 20.9102C171.134 20.9102 172.576 21.2256 173.812 21.8564C175.062 22.4873 176.039 23.3903 176.744 24.5654C177.462 25.7282 177.826 27.1074 177.839 28.7031H172.811C172.798 28.0352 172.656 27.429 172.384 26.8848C172.124 26.3405 171.741 25.9076 171.233 25.5859C170.739 25.252 170.126 25.085 169.396 25.085C168.617 25.085 167.98 25.252 167.485 25.5859C166.991 25.9076 166.607 26.3529 166.335 26.9219C166.063 27.4785 165.871 28.1156 165.76 28.833C165.661 29.5381 165.611 30.2803 165.611 31.0596V31.5977C165.611 32.377 165.661 33.1253 165.76 33.8428C165.859 34.5602 166.044 35.1973 166.316 35.7539C166.601 36.3105 166.991 36.7497 167.485 37.0713C167.98 37.3929 168.623 37.5537 169.415 37.5537ZM186.281 12.8389V41.3574H180.938V12.8389H186.281ZM198.936 21.2812L190.215 31.2266L185.539 35.958L183.591 32.0986L187.302 27.3857L192.516 21.2812H198.936ZM193.388 41.3574L187.45 32.0801L191.143 28.8516L199.548 41.3574H193.388Z" fill="#274C5B"/>
<path d="M1.95703 41.9258H19.3973H36.8376" stroke="#7EB693" stroke-width="2" stroke-miterlimit="10"/>
<path d="M5.89648 48.3574L19.3965 48.3574L32.8965 48.3574" stroke="#7EB693" stroke-width="2" stroke-miterlimit="10"/>
<path d="M18.8965 1.35742L18.8965 8.35742L18.8965 15.3574" stroke="#7EB693" stroke-width="2" stroke-miterlimit="10"/>
<path d="M18.9707 14.6426V41.0742" stroke="#7EB693" stroke-width="2" stroke-miterlimit="10"/>
<path d="M30.0304 4.41016L18.9707 15.4944" stroke="#7EB693" stroke-width="2" stroke-miterlimit="10"/>
<path d="M34.2841 8.67383L18.9707 24.0212" stroke="#7EB693" stroke-width="2" stroke-miterlimit="10"/>
<path d="M36.8364 15.4941L18.9707 32.5468" stroke="#7EB693" stroke-width="2" stroke-miterlimit="10"/>
<path d="M37.6871 23.168L18.9707 41.9259" stroke="#7EB693" stroke-width="2" stroke-miterlimit="10"/>
<path d="M37.6875 31.6953L27.4785 41.9269" stroke="#7EB693" stroke-width="2" stroke-miterlimit="10"/>
<path d="M1.10547 31.6953L11.3144 41.9269" stroke="#7EB693" stroke-width="2" stroke-miterlimit="10"/>
<path d="M8.76172 4.41016L18.9707 15.4944" stroke="#7EB693" stroke-width="2" stroke-miterlimit="10"/>
<path d="M4.50781 8.67383L18.9705 24.0212" stroke="#7EB693" stroke-width="2" stroke-miterlimit="10"/>
<path d="M1.95703 14.6426L18.972 32.5478" stroke="#7EB693" stroke-width="2" stroke-miterlimit="10"/>
<path d="M1.10547 22.3164L18.9711 41.0743" stroke="#7EB693" stroke-width="2" stroke-miterlimit="10"/>
<path d="M19.3965 54.7158C9.29565 54.7158 1.10547 46.2635 1.10547 35.8351V19.8806C1.10547 9.45419 9.29565 1 19.3965 1C29.4992 1 37.6876 9.45419 37.6876 19.8806V35.8351C37.6894 46.2635 29.4992 54.7158 19.3965 54.7158Z" stroke="#7EB693" stroke-width="2" stroke-miterlimit="10"/>
</svg>
